#!OML:ASF H:\Terrain\Patient Classification 1\Walking\steve\steve.ASF
:FULLY-SPECIFIED
:DEGREES
272
root 8.69086 16.4212 30.7665 10.0388 -0.809238 -3.67806
lowerback 0.887903 2.49283 5.94593
upperback -1.27056 3.48108 3.40492
thorax -1.66843 1.68327 0.103846
lowerneck -12.9818 -1.35316 -2.62083
upperneck 15.5801 -1.25196 -0.310213
head 6.91775 -0.782106 0.209157
rclavicle -4.11484e-014 1.66979e-014
rhumerus -3.5213 8.16137 -84.9749
rradius 28.9277
rwrist -19.7816
rhand -19.8335 -41.3504
rfingers 7.12502
rthumb 6.50059 -71.2306
lclavicle -4.11484e-014 1.66979e-014
lhumerus -39.2892 9.40355 78.8778
lradius 12.7547
lwrist -8.79713
lhand -20.6038 -16.6594
lfingers 7.12502
lthumb 5.75691 13.2424
rfemur -16.1334 3.28567 28.1345
rtibia 39.5422
rfoot -28.0526 11.0118
rtoes -1.46608
lfemur -40.9138 4.50497 -16.8297
ltibia 54.7939
lfoot -23.943 0.737378
ltoes -11.5695
273
root 8.71052 16.4611 31.0514 9.84631 -1.56324 -3.26899
lowerback 1.94023 2.8 5.25881
upperback -2.30478 4.02438 3.18101
thorax -3.3394 1.91565 0.155246
lowerneck -12.0932 -1.09287 -2.41865
upperneck 16.6556 -0.937 -0.407221
head 7.10506 -0.634692 0.177575
rclavicle -1.02374e-014 -2.70347e-014
rhumerus -3.70504 9.14607 -84.7429
rradius 29.7463
rwrist -20.1152
rhand -21.4551 -40.0284
rfingers 7.12502
rthumb 4.93488 -69.9509
lclavicle -1.02374e-014 -2.70347e-014
lhumerus -43.8739 6.50753 79.5041
lradius 13.4244
lwrist -6.32616
lhand -19.1074 -16.2084
lfingers 7.12502
lthumb 7.20149 13.6491
rfemur -14.1317 2.69958 27.3403
rtibia 38.1389
rfoot -27.3834 12.6633
rtoes -0.124369
lfemur -41.5122 4.58711 -17.2811
ltibia 52.6377
lfoot -24.0312 1.53721
ltoes -14.5847
274
root 8.71251 16.4403 31.2517 10.1136 -1.72893 -5.00705
lowerback 2.30137 3.22959 6.9697
upperback -2.55931 4.71366 3.29497
thorax -3.6695 2.20082 -0.722048
lowerneck -11.7376 -1.28163 -2.25877
upperneck 16.4099 -1.25972 -0.286453
head 6.96547 -0.766487 0.162257
rclavicle 4.24405e-014 4.29375e-014
rhumerus -1.88623 9.19408 -84.2547
rradius 30.5415
rwrist -21.1469
rhand -33.8188 -34.7963
rfingers 7.12502
rthumb -7.0047 -64.6604
lclavicle 4.24405e-014 4.29375e-014
lhumerus -46.1951 3.83822 80.254
lradius 13.7937
lwrist -3.95222
lhand -18.1826 -15.7106
lfingers 7.12502
lthumb 8.09406 14.1144
rfemur -12.9756 3.44787 29.2241
rtibia 36.6326
rfoot -26.8881 11.921
rtoes -3.1621
lfemur -43.4946 4.72545 -15.0916
ltibia 50.5475
lfoot -23.1893 1.70314
ltoes -14.2732
275
root 8.73699 16.4495 31.5094 9.99482 -2.09517 -5.38263
lowerback 2.20039 3.77099 7.86863
upperback -2.52966 5.43952 2.83492
thorax -3.41557 2.53881 -1.70198
lowerneck -11.8103 -1.77963 -2.71025
upperneck 16.5829 -2.0388 0.746791
head 7.05747 -1.07774 0.495581
rclavicle -3.35946e-014 -1.82882e-014
rhumerus -0.0559505 8.52672 -83.7458
rradius 31.161
rwrist -21.8434
rhand -20.1011 -42.1172
rfingers 7.12502
rthumb 6.24225 -72.0053
lclavicle -3.35946e-014 -1.82882e-014
lhumerus -48.4219 1.49836 80.5799
lradius 14.0789
lwrist -2.50388
lhand -17.8311 -15.5431
lfingers 7.12502
lthumb 8.43332 14.2685
rfemur -11.0516 3.09033 29.3786
rtibia 35.1311
rfoot -26.3751 12.6773
rtoes -5.08081
lfemur -44.3466 4.42273 -14.3755
ltibia 48.2658
lfoot -23.1655 2.17863
ltoes -14.2218
276
root 8.76864 16.4961 31.8257 9.54335 -2.81551 -4.18166
lowerback 1.53492 4.36615 7.17049
upperback -2.25724 6.09578 2.0011
thorax -2.67536 2.90572 -2.12583
lowerneck -12.0855 -2.25862 -3.45888
upperneck 17.1177 -2.7997 2.12409
head 7.32433 -1.36529 0.988483
rclavicle 6.95746e-015 1.27222e-014
rhumerus 1.6407 8.10402 -83.0885
rradius 31.4052
rwrist -22.029
rhand -20.6 -40.2257
rfingers 7.12502
rthumb 5.76054 -70.1274
lclavicle 6.95746e-015 1.27222e-014
lhumerus -50.7024 0.010084 80.2368
lradius 14.2803
lwrist -2.38021
lhand -17.4126 -15.2625
lfingers 7.12502
lthumb 8.83718 14.5325
rfemur -8.54337 1.78858 27.4863
rtibia 33.6245
rfoot -25.5746 15.2959
rtoes -2.92907
lfemur -44.1682 3.99245 -15.4219
ltibia 45.8294
lfoot -23.7636 2.36545
ltoes -12.9866
277
root 8.77058 16.4752 32.0388 10.2652 -3.12515 -6.01015
lowerback 1.50109 4.95897 8.93407
upperback -2.67371 6.96163 2.01604
thorax -2.82627 3.27926 -3.08953
lowerneck -11.8599 -2.61951 -3.72218
upperneck 16.9908 -3.39161 2.88834
head 7.27855 -1.5976 1.22417
rclavicle -1.4064e-014 1.11319e-014
rhumerus 3.28988 8.03802 -82.3321
rradius 31.6452
rwrist -22.3504
rhand -20.4939 -39.0255
rfingers 7.12502
rthumb 5.86296 -68.9244
lclavicle -1.4064e-014 1.11319e-014
lhumerus -52.8062 -0.904454 79.2976
lradius 14.3156
lwrist -2.95891
lhand -16.732 -14.8666
lfingers 7.12502
lthumb 9.49397 14.8996
rfemur -7.80407 2.57799 29.3254
rtibia 31.97
rfoot -24.1487 15.8203
rtoes 0.983458
lfemur -46.2449 4.15453 -12.9397
ltibia 43.5226
lfoot -23.4193 2.48885
ltoes -11.0971
